<svg xmlns="http://www.w3.org/2000/svg" viewBox="-28.6700 -78.8350 57.3400 87.8200" width="100%" height="100%" preserveAspectRatio="xMidYMid meet">
  <path d="M 7.1374 -11.9380 L 7.1374 -1.0160 M 7.1374 -11.9380 L 7.8994 -12.7000 M 12.1920 -12.7000 L 7.8994 -12.7000 M 12.1920 -12.7000 A 0.5080 0.5080 0 0 1 12.7000 -13.2080 M 12.7000 -22.0980 L 12.7000 -13.2080 M 12.7000 -22.0980 A 0.5080 0.5080 0 0 1 12.1920 -22.6060 M -10.9220 -22.6060 L 12.1920 -22.6060 M -10.9220 -22.6060 A 0.5080 0.5080 0 0 1 -11.4300 -22.0980 M -11.4300 -13.2080 L -11.4300 -22.0980 M -11.4300 -13.2080 A 0.5080 0.5080 0 0 1 -10.9220 -12.7000 M -7.1120 -12.7000 L -10.9220 -12.7000 M -7.1120 -12.7000 L -6.3500 -11.9380 M -6.3500 -1.0160 L -6.3500 -11.9380 M -6.3500 -1.0160 L -7.3660 -0.0000 M -21.2090 -0.0000 L -7.3660 -0.0000 M -21.2090 -0.0000 L -22.2250 -1.0160 M -22.2250 -49.7840 L -22.2250 -1.0160 M -22.2250 -49.7840 L -21.2090 -50.8000 M -6.3564 -50.8000 L -21.2090 -50.8000 M -6.3564 -50.8000 A 0.7620 0.7620 0 0 1 -5.6203 -51.7592 M -6.3564 -54.5061 L -5.6203 -51.7592 M -6.3564 -68.8340 L -6.3564 -54.5061 M -6.3564 -68.8340 L -5.3404 -69.8500 M 8.5027 -69.8500 L -5.3404 -69.8500 M 8.5027 -69.8500 L 9.5187 -68.8340 M 9.5187 -65.2780 L 9.5187 -68.8340 M 9.5187 -65.2780 L 8.5027 -64.2620 M 6.5342 -64.2620 L 8.5027 -64.2620 M 6.5342 -64.2620 A 0.1778 0.1778 0 0 1 6.3564 -64.0842 M 6.3564 -54.5061 L 6.3564 -64.0842 M 5.6203 -51.7592 L 6.3564 -54.5061 M 5.6203 -51.7592 A 0.7620 0.7620 0 0 1 6.3564 -50.8000 M 21.2090 -50.8000 L 6.3564 -50.8000 M 21.2090 -50.8000 L 22.2250 -49.7840 M 22.2250 -1.0160 L 22.2250 -49.7840 M 22.2250 -1.0160 L 21.2090 -0.0000 M 8.1534 -0.0000 L 21.2090 -0.0000 M 8.1534 -0.0000 L 7.1374 -1.0160" fill="none" stroke="currentColor" stroke-width="0.8782" stroke-linecap="round" stroke-linejoin="round"/>
</svg>