<svg xmlns="http://www.w3.org/2000/svg" viewBox="-32.4800 -54.8955 64.9600 93.9160" width="100%" height="100%" preserveAspectRatio="xMidYMid meet">
  <path d="M -6.3564 29.5275 L 6.3564 29.5275 M -24.3840 29.5275 L -6.3564 29.5275 M -24.3840 -45.4025 L -25.4000 -44.3865 M -25.4000 28.5115 L -24.3840 29.5275 M 24.3840 29.5275 L 25.4000 28.5115 M 11.9888 -45.4025 L 11.4808 -44.8945 M -11.6840 -44.8945 L -12.1920 -45.4025 M 10.9728 -21.2725 A 0.5080 0.5080 0 0 1 11.4808 -21.7805 M -11.6840 -21.7805 A 0.5080 0.5080 0 0 1 -11.1760 -21.2725 M 6.3564 29.5275 L 24.3840 29.5275 M 25.4000 28.5115 L 25.4000 -35.2933 M 25.4000 -35.2933 L 15.2908 -45.4025 M 15.2908 -45.4025 L 11.9888 -45.4025 M 11.4808 -44.8945 L 11.4808 -21.7805 M 10.9728 -21.2725 L -11.1760 -21.2725 M -11.6840 -21.7805 L -11.6840 -44.8945 M -12.1920 -45.4025 L -24.3840 -45.4025 M -25.4000 -44.3865 L -25.4000 28.5115" fill="none" stroke="currentColor" stroke-width="0.9392" stroke-linecap="round" stroke-linejoin="round"/>
</svg>