<svg xmlns="http://www.w3.org/2000/svg" viewBox="-17.0000 -14.0000 34.0000 148.0000" width="100%" height="100%" preserveAspectRatio="xMidYMid meet">
  <path d="M 12.5000 87.5000 L 10.0000 85.0000 M 9.0000 85.0000 L 9.0000 0.5000 M -10.0000 85.0000 L -12.5000 87.5000 M -12.5000 87.5000 L -12.5000 90.5000 M -12.5000 90.5000 L -11.0000 92.0000 M -11.0000 92.0000 L -12.5000 93.5000 M -12.5000 93.5000 L -12.5000 99.5000 M -9.0000 0.5000 L -9.0000 85.0000 M -6.0000 120.0000 L 6.0000 120.0000 M 12.5000 99.5000 L 12.5000 87.5000 M -6.5000 119.5000 L -6.0000 120.0000 M 6.0000 120.0000 L 6.5000 119.5000 M 12.0000 100.0000 L 12.5000 99.5000 M -12.5000 99.5000 L -12.0000 100.0000 M -6.5000 101.4142 L -6.5000 119.5000 M 6.5000 119.5000 L 6.5000 101.4142 M -12.0000 100.0000 L -7.9142 100.0000 M 7.9142 100.0000 L 12.0000 100.0000 M -6.5000 101.4142 L -6.1929 101.1071 M -7.6071 99.6929 L -7.9142 100.0000 M -6.1929 101.1071 A 1.0000 1.0000 0 1 1 -7.6071 99.6929 M 6.5000 101.4142 L 6.1929 101.1071 M 7.6071 99.6929 A 1.0000 1.0000 0 1 1 6.1929 101.1071 M 7.6071 99.6929 L 7.9142 100.0000 M -10.0000 85.0000 L -9.0000 85.0000 M -9.0000 85.0000 L -10.0000 85.0000 M 9.0000 85.0000 L 10.0865 85.0000 M -8.5000 -0.0000 L -9.0000 0.5000 M 9.0000 0.5000 L 8.5000 -0.0000 M 8.5000 -0.0000 L 6.6367 -0.0000 M 5.5577 0.4580 L 1.0790 5.0958 M -1.0790 5.0958 L -5.5577 0.4580 M -6.6367 -0.0000 L -8.5000 -0.0000 M 6.6367 0.0000 A 1.5000 1.5000 0 0 1 5.5577 0.4580 M -5.5577 0.4580 A 1.5000 1.5000 0 0 1 -6.6367 0.0000 M -1.0790 5.0958 A 1.5000 1.5000 0 0 1 1.0790 5.0958" fill="none" stroke="currentColor" stroke-width="1.4800" stroke-linecap="round" stroke-linejoin="round"/>
</svg>