<svg xmlns="http://www.w3.org/2000/svg" viewBox="-54.5354 -134.0000 82.4248 148.0000" width="100%" height="100%" preserveAspectRatio="xMidYMid meet">
  <path d="M -10.9468 -69.7165 A 20.0000 20.0000 0 0 1 -18.4626 -43.4864 M -0.1843 -0.0811 A 0.2500 0.2500 0 0 1 0.1843 -0.0811 M -8.0607 -90.3536 L -6.6464 -88.9393 M -6.6464 -88.9393 L -5.5858 -90.0000 M -5.5858 -90.0000 L 6.0000 -90.0000 M 6.0000 -90.0000 L 7.0000 -89.0000 M 7.0000 -89.0000 L 7.0000 -80.5000 M 7.0000 -80.5000 L -10.9468 -69.7165 M -18.4626 -43.4864 L 4.1186 -4.3746 M 4.1186 -4.3746 L 0.1843 -0.0811 M -0.1843 -0.0811 L -6.7817 -7.2809 M -6.7817 -7.2809 L -6.7817 -7.8883 M -6.7817 -7.8883 L -46.0000 -50.6876 M -46.0000 -50.6876 L -46.0000 -81.0000 M -46.0000 -81.0000 L -37.0000 -90.0000 M -37.0000 -90.0000 L -20.0000 -90.0000 M -20.0000 -90.0000 L -20.0000 -94.6000 M -20.0000 -94.6000 L -17.0000 -94.6000 M -17.0000 -94.6000 L -17.0000 -103.0000 M -17.0000 -103.0000 L -19.8000 -103.0000 M -19.8000 -103.0000 L -20.0000 -103.2000 M -20.0000 -103.2000 L -20.0000 -119.0000 M -20.0000 -119.0000 L -19.0000 -120.0000 M -19.0000 -120.0000 L -8.0000 -120.0000 M -8.0000 -120.0000 L -7.0000 -119.0000 M -7.0000 -119.0000 L -7.0000 -91.4142 M -7.0000 -91.4142 L -8.0607 -90.3536" fill="none" stroke="currentColor" stroke-width="1.4800" stroke-linecap="round" stroke-linejoin="round"/>
</svg>