<svg xmlns="http://www.w3.org/2000/svg" viewBox="-38.0000 -172.5000 76.0000 190.0000" width="100%" height="100%" preserveAspectRatio="xMidYMid meet">
  <path d="M 9.0000 -155.0000 L -9.0000 -155.0000 M -9.5017 -9.8891 L -0.7373 -0.3244 M -0.7373 -0.3244 A 1.0000 1.0000 0 0 1 0.7373 -0.3244 M 0.7373 -0.3244 L 10.0000 -10.4329 M -10.0000 -154.0000 L -10.0000 -141.5000 M 10.0000 -141.5000 L 10.0000 -154.0000 M -10.0000 -141.5000 L -9.5000 -141.5000 M -9.5000 -141.5000 L -6.3536 -144.6464 M -5.5000 -144.2929 L -5.5000 -127.8000 M -6.3000 -127.0000 L -9.5000 -127.0000 M -30.0000 -92.0000 L -30.0000 -36.6996 M -10.0000 -43.2843 L -10.0000 -74.7157 M -4.1421 -88.8579 L 10.0000 -103.0000 M 10.0000 -103.0000 L 10.0000 -126.5000 M 9.5000 -127.0000 L 6.3000 -127.0000 M 6.3536 -144.6464 A 0.5000 0.5000 0 0 1 5.5000 -144.2929 M 5.5000 -127.8000 A 0.8000 0.8000 0 0 1 6.3000 -127.0000 M -30.0000 -36.6996 L -10.3858 -15.2945 M -10.0000 -43.2843 A 20.0000 20.0000 0 0 1 -4.1421 -29.1421 M -10.0000 -112.0000 L -30.0000 -92.0000 M -9.5017 -9.8891 A 5.0000 5.0000 0 0 1 -10.3858 -15.2945 M 10.0000 -10.4329 L 10.0000 -15.0000 M 10.0000 -15.0000 L -4.1421 -29.1421 M -4.1421 -88.8579 A 20.0000 20.0000 0 0 1 -10.0000 -74.7157 M -10.0000 -126.5000 L -10.0000 -112.0000 M 5.5000 -127.8000 L 5.5000 -144.2929 M 6.3536 -144.6464 L 9.5000 -141.5000 M 9.5000 -141.5000 L 10.0000 -141.5000 M -5.5000 -144.2929 A 0.5000 0.5000 0 0 1 -6.3536 -144.6464 M -6.3000 -127.0000 A 0.8000 0.8000 0 0 1 -5.5000 -127.8000 M -10.0000 -154.0000 L -9.0000 -155.0000 M 9.0000 -155.0000 L 10.0000 -154.0000 M -10.0000 -126.5000 L -9.5000 -127.0000 M 9.5000 -127.0000 L 10.0000 -126.5000" fill="none" stroke="currentColor" stroke-width="1.9000" stroke-linecap="round" stroke-linejoin="round"/>
</svg>