<svg xmlns="http://www.w3.org/2000/svg" viewBox="-38.0000 -10.0000 76.0000 100.0000" width="100%" height="100%" preserveAspectRatio="xMidYMid meet">
  <path d="M -10.5347 -0.0000 L -29.0000 -0.0000 M -29.0000 -0.0000 L -30.0000 1.0000 M -30.0000 1.0000 L -30.0000 48.5000 M -30.0000 48.5000 L -28.5000 50.0000 M -28.5000 50.0000 L -30.0000 51.5000 M -30.0000 51.5000 L -30.0000 79.0000 M -30.0000 79.0000 L -29.0000 80.0000 M -29.0000 80.0000 L -14.8020 80.0000 M -11.9042 77.7765 L -4.1986 49.0187 M -3.2327 48.2776 L 3.2327 48.2776 M 4.1986 49.0187 L 11.9042 77.7765 M 14.8020 80.0000 L 29.0000 80.0000 M 29.0000 80.0000 L 30.0000 79.0000 M 30.0000 79.0000 L 30.0000 1.0000 M 30.0000 1.0000 L 29.0000 -0.0000 M 29.0000 -0.0000 L 10.5347 -0.0000 M 8.6028 1.4824 L 2.6986 23.5171 M 1.7327 24.2583 L -1.7327 24.2583 M -2.6986 23.5171 L -8.6028 1.4824 M -14.8020 80.0000 A 3.0000 3.0000 0 0 1 -11.9042 77.7765 M -3.2327 48.2776 A 1.0000 1.0000 0 0 1 -4.1986 49.0187 M 4.1986 49.0187 A 1.0000 1.0000 0 0 1 3.2327 48.2776 M 11.9042 77.7765 A 3.0000 3.0000 0 0 1 14.8020 80.0000 M 10.5347 0.0000 A 2.0000 2.0000 0 0 1 8.6028 1.4824 M 1.7327 24.2583 A 1.0000 1.0000 0 0 1 2.6986 23.5171 M -2.6986 23.5171 A 1.0000 1.0000 0 0 1 -1.7327 24.2583 M -8.6028 1.4824 A 2.0000 2.0000 0 0 1 -10.5347 0.0000" fill="none" stroke="currentColor" stroke-width="1.0000" stroke-linecap="round" stroke-linejoin="round"/>
</svg>