<svg xmlns="http://www.w3.org/2000/svg" viewBox="-14.0000 -14.0000 52.0000 148.0000" width="100%" height="100%" preserveAspectRatio="xMidYMid meet">
  <path d="M -6.5000 92.0000 L -8.0000 93.5000 M -8.0000 93.5000 L -8.0000 99.5000 M -8.0000 99.5000 L -7.5000 100.0000 M -7.5000 100.0000 L 3.3787 100.0000 M 5.5000 102.1213 L 5.5000 119.5000 M 5.5000 119.5000 L 6.0000 120.0000 M 6.0000 120.0000 L 18.0000 120.0000 M 18.0000 120.0000 L 18.5000 119.5000 M 18.5000 119.5000 L 18.5000 102.1213 M 20.6213 100.0000 L 31.5000 100.0000 M 31.5000 100.0000 L 32.0000 99.5000 M 32.0000 99.5000 L 32.0000 0.5000 M 32.0000 0.5000 L 31.5000 0.0000 M 31.5000 0.0000 L 25.2734 0.0000 M 23.1154 0.9160 L 13.4387 10.9366 M 10.5613 10.9366 L 0.8846 0.9160 M -1.2734 0.0000 L -7.5000 0.0000 M -7.5000 0.0000 L -8.0000 0.5000 M -8.0000 0.5000 L -8.0000 90.5000 M -8.0000 90.5000 L -6.5000 92.0000 M 3.5422 99.8364 L 3.3787 100.0000 M 5.6636 101.9578 L 5.5000 102.1213 M 5.6636 101.9578 A 1.5000 1.5000 0 0 1 3.5422 99.8364 M 20.4578 99.8364 L 20.6213 100.0000 M 18.3364 101.9578 L 18.5000 102.1213 M 20.4578 99.8364 A 1.5000 1.5000 0 0 1 18.3364 101.9578 M 25.2734 -0.0000 A 3.0000 3.0000 0 0 1 23.1154 0.9160 M 0.8846 0.9160 A 3.0000 3.0000 0 0 1 -1.2734 -0.0000 M 10.5613 10.9366 A 2.0000 2.0000 0 0 1 13.4387 10.9366" fill="none" stroke="currentColor" stroke-width="1.4800" stroke-linecap="round" stroke-linejoin="round"/>
</svg>