<svg xmlns="http://www.w3.org/2000/svg" viewBox="-25.0000 -172.5000 40.0000 190.0000" width="100%" height="100%" preserveAspectRatio="xMidYMid meet">
  <path d="M 9.5000 -141.5000 L 10.0000 -141.5000 M -5.5000 -144.2929 A 0.5000 0.5000 0 0 1 -6.3536 -144.6464 M 6.3536 -144.6464 L 9.5000 -141.5000 M 5.5000 -127.8000 L 5.5000 -144.2929 M -6.3000 -127.0000 A 0.8000 0.8000 0 0 1 -5.5000 -127.8000 M -10.8000 -109.0000 A 0.8000 0.8000 0 0 1 -10.0000 -109.8000 M 9.0000 -155.0000 L 10.0000 -154.0000 M -10.0000 -154.0000 L -9.0000 -155.0000 M 9.5000 -127.0000 L 10.0000 -126.5000 M -10.0000 -126.5000 L -9.5000 -127.0000 M 0.7193 -0.3053 L 6.9508 -6.7582 M -0.7193 -0.3053 A 1.0000 1.0000 0 0 1 0.7193 -0.3053 M -6.9496 -6.7570 L -0.7193 -0.3053 M 9.0000 -155.0000 L -9.0000 -155.0000 M 5.5000 -127.8000 A 0.8000 0.8000 0 0 1 6.3000 -127.0000 M 6.3536 -144.6464 A 0.5000 0.5000 0 0 1 5.5000 -144.2929 M 9.5000 -127.0000 L 6.3000 -127.0000 M -2.5000 -87.5000 L 10.0000 -100.0000 M -2.5000 -16.5448 L -2.5000 -87.5000 M -20.0000 -108.0000 L -20.0000 -21.7393 M -10.8000 -109.0000 L -19.0000 -109.0000 M -6.3000 -127.0000 L -9.5000 -127.0000 M -5.5000 -144.2929 L -5.5000 -127.8000 M -9.5000 -141.5000 L -6.3536 -144.6464 M -10.0000 -141.5000 L -9.5000 -141.5000 M 10.0000 -141.5000 L 10.0000 -154.0000 M -10.0000 -154.0000 L -10.0000 -141.5000 M -20.0000 -21.7393 L -6.5809 -7.0949 M 6.9508 -6.7582 L -2.5000 -16.5448 M -20.0000 -108.0000 L -19.0000 -109.0000 M 10.0000 -126.5000 L 10.0000 -100.0000 M -10.0000 -126.5000 L -10.0000 -109.8000 M -6.5809 -7.0949 L -6.9496 -6.7570" fill="none" stroke="currentColor" stroke-width="1.9000" stroke-linecap="round" stroke-linejoin="round"/>
</svg>