<svg xmlns="http://www.w3.org/2000/svg" viewBox="-35.4641 -14.0000 70.9282 148.0000" width="100%" height="100%" preserveAspectRatio="xMidYMid meet">
  <path d="M 6.0000 120.0000 L 6.5000 119.5000 M -6.5000 119.5000 L -6.0000 120.0000 M 27.0000 100.0000 L 27.5000 99.5000 M -27.5000 99.5000 L -27.0000 100.0000 M -27.5000 93.5000 L -27.5000 99.5000 M -6.5000 102.1213 L -6.5000 119.5000 M -6.0000 120.0000 L 6.0000 120.0000 M 6.5000 119.5000 L 6.5000 102.1213 M 27.0000 -0.0000 L 22.8868 -0.0000 M 27.5000 99.5000 L 27.5000 0.5000 M 18.5566 2.5000 L 4.3301 27.1410 M -4.3301 27.1410 L -18.5566 2.5000 M -22.8868 -0.0000 L -27.0000 -0.0000 M -27.5000 0.5000 L -27.5000 90.5000 M -26.0000 92.0000 L -27.5000 93.5000 M -27.5000 90.5000 L -26.0000 92.0000 M 22.8868 0.0000 A 5.0000 5.0000 0 0 1 18.5566 2.5000 M -18.5566 2.5000 A 5.0000 5.0000 0 0 1 -22.8868 0.0000 M -27.0000 100.0000 L -8.6213 100.0000 M 8.6213 100.0000 L 27.0000 100.0000 M -27.0000 -0.0000 L -27.5000 0.5000 M 27.5000 0.5000 L 27.0000 -0.0000 M -4.3301 27.1410 A 5.0000 5.0000 0 0 1 4.3301 27.1410 M -8.4578 99.8364 L -8.6213 100.0000 M -6.3364 101.9578 L -6.5000 102.1213 M -6.3364 101.9578 A 1.5000 1.5000 0 0 1 -8.4578 99.8364 M 8.4578 99.8364 L 8.6213 100.0000 M 6.3364 101.9578 L 6.5000 102.1213 M 8.4578 99.8364 A 1.5000 1.5000 0 0 1 6.3364 101.9578" fill="none" stroke="currentColor" stroke-width="1.4800" stroke-linecap="round" stroke-linejoin="round"/>
</svg>