<svg xmlns="http://www.w3.org/2000/svg" viewBox="77.1703 -215.0950 64.9600 116.7760" width="100%" height="100%" preserveAspectRatio="xMidYMid meet">
  <path d="M 97.4583 -109.7170 L 97.9663 -110.2250 M 121.1311 -110.2250 L 121.6391 -109.7170 M 103.2940 -184.6470 L 85.2663 -184.6470 M 85.2663 -184.6470 L 84.2503 -183.6310 M 84.2503 -183.6310 L 84.2503 -119.6230 M 84.2503 -119.6230 L 94.1563 -109.7170 M 94.1563 -109.7170 L 97.4583 -109.7170 M 97.9663 -110.2250 L 97.9663 -133.3390 M 98.4743 -133.8470 A 0.5080 0.5080 0 0 1 97.9663 -133.3390 M 98.4743 -133.8470 L 120.6231 -133.8470 M 121.1311 -133.3390 A 0.5080 0.5080 0 0 1 120.6231 -133.8470 M 121.1311 -133.3390 L 121.1311 -110.2250 M 121.6391 -109.7170 L 134.0343 -109.7170 M 134.0343 -109.7170 L 135.0503 -110.7330 M 135.0503 -110.7330 L 135.0503 -183.6310 M 135.0503 -183.6310 L 134.0343 -184.6470 M 134.0343 -184.6470 L 116.0067 -184.6470 M 115.2706 -185.6062 A 0.7620 0.7620 0 0 1 116.0067 -184.6470 M 115.2706 -185.6062 L 116.0067 -188.3531 M 116.0067 -188.3531 L 116.0067 -202.6810 M 116.0067 -202.6810 L 114.9907 -203.6970 M 114.9907 -203.6970 L 101.1477 -203.6970 M 101.1477 -203.6970 L 100.1317 -202.6810 M 100.1317 -202.6810 L 100.1317 -199.1250 M 100.1317 -199.1250 L 101.1477 -198.1090 M 101.1477 -198.1090 L 103.1162 -198.1090 M 103.2940 -197.9312 A 0.1778 0.1778 0 0 1 103.1162 -198.1090 M 103.2940 -197.9312 L 103.2940 -188.3531 M 103.2940 -188.3531 L 104.0300 -185.6062 M 103.2940 -184.6470 A 0.7620 0.7620 0 0 1 104.0300 -185.6062" fill="none" stroke="currentColor" stroke-width="1.1678" stroke-linecap="round" stroke-linejoin="round"/>
</svg>