<svg xmlns="http://www.w3.org/2000/svg" viewBox="-15.0000 -174.7000 40.0000 192.4000" width="100%" height="100%" preserveAspectRatio="xMidYMid meet">
  <path d="M -10.0000 -156.0000 L -10.0000 -145.0000 M -10.0000 -145.0000 L -6.5000 -141.5000 M -6.5000 -141.5000 L -6.5000 -140.0000 M -6.5000 -140.0000 L -10.0000 -136.5000 M -10.0000 -136.5000 L -10.0000 -92.0000 M -10.0000 -92.0000 L 2.0000 -80.0000 M 2.0000 -80.0000 L 2.0000 -16.3413 M 2.0000 -16.3413 L -6.8366 -6.8651 M -6.8366 -6.8651 L -0.7314 -0.3180 M -0.7314 -0.3180 A 1.0000 1.0000 0 0 1 0.7314 -0.3180 M 0.7314 -0.3180 L 9.7600 -10.0000 M 9.7600 -10.0000 L 9.3943 -10.3410 M 9.3943 -10.3410 L 20.0000 -21.7142 M 20.0000 -21.7142 L 20.0000 -117.1000 M 20.0000 -117.1000 L 19.1000 -118.0000 M 19.1000 -118.0000 L 10.6000 -118.0000 M 10.0000 -118.6000 A 0.6000 0.6000 0 0 1 10.6000 -118.0000 M 10.0000 -118.6000 L 10.0000 -136.5000 M 10.0000 -136.5000 L 6.5000 -140.0000 M 6.5000 -140.0000 L 6.5000 -141.5000 M 6.5000 -141.5000 L 10.0000 -145.0000 M 10.0000 -145.0000 L 10.0000 -156.0000 M 10.0000 -156.0000 L 9.0000 -157.0000 M 9.0000 -157.0000 L -9.0000 -157.0000 M -9.0000 -157.0000 L -10.0000 -156.0000" fill="none" stroke="currentColor" stroke-width="1.9240" stroke-linecap="round" stroke-linejoin="round"/>
</svg>