<svg xmlns="http://www.w3.org/2000/svg" viewBox="-38.0000 -14.0000 76.0000 148.0000" width="100%" height="100%" preserveAspectRatio="xMidYMid meet">
  <path d="M 8.1997 -0.0000 A 3.0000 3.0000 0 0 1 5.3385 2.0979 M 0.6334 15.8580 A 0.5000 0.5000 0 0 1 1.1102 15.5083 M -1.1102 15.5083 A 0.5000 0.5000 0 0 1 -0.6334 15.8580 M -5.3385 2.0979 A 3.0000 3.0000 0 0 1 -8.1997 0.0000 M -12.0000 76.0000 L -12.0000 102.0000 M -12.0000 102.0000 L -29.0000 102.0000 M -29.0000 102.0000 L -30.0000 103.0000 M -30.0000 103.0000 L -30.0000 119.0000 M -30.0000 119.0000 L -29.0000 120.0000 M -29.0000 120.0000 L 29.0000 120.0000 M 29.0000 120.0000 L 30.0000 119.0000 M 30.0000 119.0000 L 30.0000 103.0000 M 30.0000 103.0000 L 29.0000 102.0000 M 29.0000 102.0000 L 12.0000 102.0000 M 12.0000 102.0000 L 12.0000 0.7000 M 12.0000 0.7000 L 11.3000 0.0000 M 11.3000 0.0000 L 8.1997 0.0000 M 5.3385 2.0979 L 1.1102 15.5083 M 0.6334 15.8580 L -0.6334 15.8580 M -1.1102 15.5083 L -5.3385 2.0979 M -8.1997 0.0000 L -11.3000 0.0000 M -11.3000 0.0000 L -12.0000 0.7000 M -12.0000 0.7000 L -12.0000 74.0000 M -12.0000 74.0000 L -11.0000 75.0000 M -11.0000 75.0000 L -12.0000 76.0000" fill="none" stroke="currentColor" stroke-width="1.4800" stroke-linecap="round" stroke-linejoin="round"/>
</svg>