<svg xmlns="http://www.w3.org/2000/svg" viewBox="-26.0000 -9.5000 52.0000 94.0000" width="100%" height="100%" preserveAspectRatio="xMidYMid meet">
  <path d="M 6.5000 56.9608 L 6.0608 56.2000 M 7.7000 54.5608 A 1.2000 1.2000 0 0 1 6.0608 56.2000 M 7.7000 54.5608 L 8.4608 55.0000 M 8.4608 55.0000 L 19.5000 55.0000 M -20.0000 45.5000 L -18.5000 47.0000 M -18.5000 47.0000 L -20.0000 48.5000 M -20.0000 48.5000 L -20.0000 54.5000 M -8.4608 55.0000 L -7.7000 54.5608 M -6.0608 56.2000 A 1.2000 1.2000 0 0 1 -7.7000 54.5608 M -6.0608 56.2000 L -6.5000 56.9608 M -6.5000 56.9608 L -6.5000 74.5000 M -13.3200 -0.0000 L -19.5000 0.0000 M 19.5000 0.0000 L 13.3200 0.0000 M -20.0000 0.5000 L -20.0000 45.5000 M -19.5000 0.0000 L -20.0000 0.5000 M 20.0000 0.5000 L 19.5000 0.0000 M 20.0000 54.5000 L 20.0000 0.5000 M -19.5000 55.0000 L -8.4608 55.0000 M -20.0000 54.5000 L -19.5000 55.0000 M 19.5000 55.0000 L 20.0000 54.5000 M 6.5000 74.5000 L 6.5000 56.9608 M -6.0000 75.0000 L 6.0000 75.0000 M -6.5000 74.5000 L -6.0000 75.0000 M 6.0000 75.0000 L 6.5000 74.5000 M -11.1082 0.9732 L -1.4746 11.4865 M 11.1082 0.9732 L 1.4746 11.4865 M -1.4746 11.4865 A 2.0000 2.0000 0 0 1 1.4746 11.4865 M -11.1082 0.9732 A 3.0000 3.0000 0 0 1 -13.3200 -0.0000 M 13.3200 0.0000 A 3.0000 3.0000 0 0 1 11.1082 0.9732" fill="none" stroke="currentColor" stroke-width="0.9400" stroke-linecap="round" stroke-linejoin="round"/>
</svg>