<svg xmlns="http://www.w3.org/2000/svg" viewBox="-29.7525 -90.8799 70.3306 100.9599" width="100%" height="100%" preserveAspectRatio="xMidYMid meet">
  <path d="M 33.0505 -64.1045 L 33.0505 -79.7839 M 33.0505 -64.1045 L 32.7457 -63.7997 M 30.2285 -63.7997 L 32.7457 -63.7997 M 30.2285 -63.7997 A 0.1778 0.1778 0 0 1 30.0507 -63.6219 M 30.0507 -55.5777 L 30.0507 -63.6219 M 30.0507 -55.5777 A 0.1778 0.1778 0 0 1 30.2285 -55.3999 M 32.7457 -55.3999 L 30.2285 -55.3999 M 32.7457 -55.3999 L 33.0505 -55.0951 M 33.0505 -36.2255 L 33.0505 -55.0951 M 22.2250 -25.4000 L 33.0505 -36.2255 M 22.2250 -1.0160 L 22.2250 -25.4000 M 22.2250 -1.0160 L 21.2090 -0.0000 M 8.1534 -0.0000 L 21.2090 -0.0000 M 8.1534 -0.0000 L 7.1374 -1.0160 M 7.1374 -11.9380 L 7.1374 -1.0160 M 7.1374 -11.9380 L 7.8994 -12.7000 M 12.1920 -12.7000 L 7.8994 -12.7000 M 12.1920 -12.7000 A 0.5080 0.5080 0 0 1 12.7000 -13.2080 M 12.7000 -22.0980 L 12.7000 -13.2080 M 12.7000 -22.0980 A 0.5080 0.5080 0 0 1 12.1920 -22.6060 M -10.9220 -22.6060 L 12.1920 -22.6060 M -10.9220 -22.6060 A 0.5080 0.5080 0 0 1 -11.4300 -22.0980 M -11.4300 -13.2080 L -11.4300 -22.0980 M -11.4300 -13.2080 A 0.5080 0.5080 0 0 1 -10.9220 -12.7000 M -7.1120 -12.7000 L -10.9220 -12.7000 M -7.1120 -12.7000 L -6.3500 -11.9380 M -6.3500 -1.0160 L -6.3500 -11.9380 M -6.3500 -1.0160 L -7.3660 -0.0000 M -21.2090 -0.0000 L -7.3660 -0.0000 M -21.2090 -0.0000 L -22.2250 -1.0160 M -22.2250 -49.7840 L -22.2250 -1.0160 M -22.2250 -49.7840 L -21.2090 -50.8000 M 20.0000 -50.8000 L -21.2090 -50.8000 M 20.0000 -50.8000 A 0.7620 0.7620 0 0 1 20.7360 -51.7592 M 20.0000 -54.5061 L 20.7360 -51.7592 M 20.0000 -79.7839 L 20.0000 -54.5061 M 20.0000 -79.7839 L 21.0160 -80.7999 M 32.0345 -80.7999 L 21.0160 -80.7999 M 32.0345 -80.7999 L 33.0505 -79.7839" fill="none" stroke="currentColor" stroke-width="1.0096" stroke-linecap="round" stroke-linejoin="round"/>
</svg>