<svg xmlns="http://www.w3.org/2000/svg" viewBox="-24.8600 -59.4675 49.7200 84.0100" width="100%" height="100%" preserveAspectRatio="xMidYMid meet">
  <path d="M 6.3564 -0.0000 A 0.7620 0.7620 0 0 1 5.6203 0.9592 M 6.3564 -0.0000 L 18.0340 -0.0000 M 18.0340 -0.0000 L 19.0500 -1.0160 M 19.0500 -1.0160 L 19.0500 -49.7840 M 19.0500 -49.7840 L 18.0340 -50.8000 M 18.0340 -50.8000 L 7.3660 -50.8000 M 7.3660 -50.8000 L 6.3500 -49.7840 M 6.3500 -49.7840 L 6.3500 -34.2900 M 5.8420 -33.7820 A 0.5080 0.5080 0 0 1 6.3500 -34.2900 M 5.8420 -33.7820 L -6.6294 -33.7820 M -7.1374 -34.2900 A 0.5080 0.5080 0 0 1 -6.6294 -33.7820 M -7.1374 -34.2900 L -7.1374 -49.7840 M -7.1374 -49.7840 L -8.1534 -50.8000 M -8.1534 -50.8000 L -18.0340 -50.8000 M -18.0340 -50.8000 L -19.0500 -49.7840 M -19.0500 -49.7840 L -19.0500 -1.0160 M -19.0500 -1.0160 L -18.0340 -0.0000 M -18.0340 -0.0000 L -6.3564 -0.0000 M -5.6203 0.9592 A 0.7620 0.7620 0 0 1 -6.3564 0.0000 M -5.6203 0.9592 L -6.3564 3.7061 M -6.3564 3.7061 L -6.3564 14.8590 M -6.3564 14.8590 L -5.3404 15.8750 M -5.3404 15.8750 L 5.3404 15.8750 M 5.3404 15.8750 L 6.3564 14.8590 M 6.3564 14.8590 L 6.3564 3.7061 M 6.3564 3.7061 L 5.6203 0.9592" fill="none" stroke="currentColor" stroke-width="0.8401" stroke-linecap="round" stroke-linejoin="round"/>
</svg>